<svg viewBox="0 0 200 220" xmlns="http://www.w3.org/2000/svg" fill="none">
  <!-- Circle ring open at bottom -->
  <path d="M 30 100 A 70 70 0 1 1 170 100"
        stroke="#C9A96E" stroke-width="12" stroke-linecap="round"/>
  <!-- Letter U inside circle -->
  <path d="M 75 55 L 75 105 Q 75 125 100 125 Q 125 125 125 105 L 125 55"
        stroke="#C9A96E" stroke-width="12"
        stroke-linecap="round" stroke-linejoin="round" fill="none"/>
  <!-- Book pages — left wing -->
  <path d="M 30 100 Q 55 140 100 150"
        stroke="#C9A96E" stroke-width="10"
        stroke-linecap="round" fill="none"/>
  <path d="M 45 115 Q 70 150 100 160"
        stroke="#C9A96E" stroke-width="8"
        stroke-linecap="round" fill="none" opacity="0.7"/>
  <path d="M 58 128 Q 78 160 100 170"
        stroke="#C9A96E" stroke-width="5"
        stroke-linecap="round" fill="none" opacity="0.4"/>
  <!-- Book pages — right wing -->
  <path d="M 170 100 Q 145 140 100 150"
        stroke="#C9A96E" stroke-width="10"
        stroke-linecap="round" fill="none"/>
  <path d="M 155 115 Q 130 150 100 160"
        stroke="#C9A96E" stroke-width="8"
        stroke-linecap="round" fill="none" opacity="0.7"/>
  <path d="M 142 128 Q 122 160 100 170"
        stroke="#C9A96E" stroke-width="5"
        stroke-linecap="round" fill="none" opacity="0.4"/>
  <!-- Centre spine dot -->
  <circle cx="100" cy="150" r="4" fill="#C9A96E"/>
</svg>
